# Blender 4.3.2
# www.blender.org
o Cylinder.004
v 0.000000 -0.070116 -0.163172
v 0.000000 0.009715 -0.163172
v 0.031833 -0.070116 -0.160037
v 0.031833 0.009715 -0.160037
v 0.062443 -0.070116 -0.150751
v 0.062443 0.009715 -0.150751
v 0.090654 -0.070116 -0.135673
v 0.090654 0.009715 -0.135673
v 0.115380 -0.070116 -0.115380
v 0.115380 0.009715 -0.115380
v 0.135673 -0.070116 -0.090654
v 0.135673 0.009715 -0.090653
v 0.150751 -0.070116 -0.062443
v 0.150751 0.009715 -0.062443
v 0.160037 -0.070116 -0.031833
v 0.160037 0.009715 -0.031833
v 0.163172 -0.070116 -0.000000
v 0.163172 0.009715 0.000000
v 0.160037 -0.070116 0.031833
v 0.160037 0.009715 0.031833
v 0.150751 -0.070116 0.062443
v 0.150751 0.009715 0.062443
v 0.135673 -0.070116 0.090654
v 0.135673 0.009715 0.090654
v 0.115380 -0.070116 0.115380
v 0.115380 0.009715 0.115380
v 0.090654 -0.070116 0.135673
v 0.090654 0.009715 0.135673
v 0.062443 -0.070116 0.150751
v 0.062443 0.009715 0.150751
v 0.031833 -0.070116 0.160037
v 0.031833 0.009715 0.160037
v -0.000000 -0.070116 0.163172
v -0.000000 0.009715 0.163172
v -0.031833 -0.070116 0.160037
v -0.031833 0.009715 0.160037
v -0.062443 -0.070116 0.150751
v -0.062443 0.009715 0.150751
v -0.090654 -0.070116 0.135673
v -0.090654 0.009715 0.135673
v -0.115380 -0.070116 0.115380
v -0.115380 0.009715 0.115380
v -0.135673 -0.070116 0.090653
v -0.135673 0.009715 0.090653
v -0.150751 -0.070116 0.062443
v -0.150751 0.009715 0.062443
v -0.160037 -0.070116 0.031833
v -0.160037 0.009715 0.031833
v -0.163172 -0.070116 -0.000000
v -0.163172 0.009715 -0.000000
v -0.160037 -0.070116 -0.031833
v -0.160037 0.009715 -0.031833
v -0.150751 -0.070116 -0.062443
v -0.150751 0.009715 -0.062443
v -0.135672 -0.070116 -0.090654
v -0.135672 0.009715 -0.090654
v -0.115380 -0.070116 -0.115380
v -0.115380 0.009715 -0.115380
v -0.090653 -0.070116 -0.135673
v -0.090653 0.009715 -0.135673
v -0.062443 -0.070116 -0.150751
v -0.062443 0.009715 -0.150751
v -0.031833 -0.070116 -0.160037
v -0.031833 0.009715 -0.160037
v -0.000000 -0.101025 -0.189906
v -0.000000 0.062182 -0.189906
v 0.037049 -0.101025 -0.186257
v 0.037049 0.062182 -0.186257
v 0.072674 -0.101025 -0.175450
v 0.072674 0.062182 -0.175450
v 0.105506 -0.101025 -0.157901
v 0.105506 0.062182 -0.157901
v 0.134284 -0.101025 -0.134284
v 0.134284 0.062182 -0.134284
v 0.157901 -0.101025 -0.105506
v 0.157901 0.062182 -0.105506
v 0.175450 -0.101025 -0.072674
v 0.175450 0.062182 -0.072674
v 0.186257 -0.101025 -0.037049
v 0.186257 0.062182 -0.037049
v 0.189906 -0.101025 0.000000
v 0.189906 0.062182 0.000000
v 0.186257 -0.101025 0.037049
v 0.186257 0.062182 0.037049
v 0.175450 -0.101025 0.072674
v 0.175450 0.062182 0.072674
v 0.157901 -0.101025 0.105506
v 0.157901 0.062182 0.105506
v 0.134284 -0.101025 0.134284
v 0.134284 0.062182 0.134284
v 0.105506 -0.101025 0.157901
v 0.105506 0.062182 0.157901
v 0.072674 -0.101025 0.175451
v 0.072674 0.062182 0.175451
v 0.037049 -0.101025 0.186257
v 0.037049 0.062182 0.186257
v -0.000000 -0.101025 0.189906
v -0.000000 0.062182 0.189906
v -0.037049 -0.101025 0.186257
v -0.037049 0.062182 0.186257
v -0.072674 -0.101025 0.175450
v -0.072674 0.062182 0.175450
v -0.105506 -0.101025 0.157901
v -0.105506 0.062182 0.157901
v -0.134284 -0.101025 0.134284
v -0.134284 0.062182 0.134284
v -0.157901 -0.101025 0.105506
v -0.157901 0.062182 0.105506
v -0.175451 -0.101025 0.072674
v -0.175451 0.062182 0.072674
v -0.186257 -0.101025 0.037049
v -0.186257 0.062182 0.037049
v -0.189906 -0.101025 -0.000000
v -0.189906 0.062182 -0.000000
v -0.186257 -0.101025 -0.037049
v -0.186257 0.062182 -0.037049
v -0.175450 -0.101025 -0.072674
v -0.175450 0.062182 -0.072674
v -0.157901 -0.101025 -0.105506
v -0.157901 0.062182 -0.105506
v -0.134284 -0.101025 -0.134284
v -0.134284 0.062182 -0.134284
v -0.105506 -0.101025 -0.157901
v -0.105506 0.062182 -0.157901
v -0.072674 -0.101025 -0.175451
v -0.072674 0.062182 -0.175451
v -0.037049 -0.101025 -0.186257
v -0.037049 0.062182 -0.186257
v -0.000000 -0.101828 -0.258165
v -0.000000 0.062985 -0.258165
v 0.050366 -0.101828 -0.253205
v 0.050366 0.062985 -0.253205
v 0.098796 -0.101828 -0.238513
v 0.098796 0.062985 -0.238513
v 0.143429 -0.101828 -0.214656
v 0.143429 0.062985 -0.214656
v 0.182550 -0.101828 -0.182550
v 0.182550 0.062985 -0.182550
v 0.214656 -0.101828 -0.143429
v 0.214656 0.062985 -0.143429
v 0.238513 -0.101828 -0.098796
v 0.238513 0.062985 -0.098795
v 0.253205 -0.101828 -0.050366
v 0.253205 0.062985 -0.050365
v 0.258165 -0.101828 0.000000
v 0.258165 0.062985 0.000000
v 0.253205 -0.101828 0.050366
v 0.253205 0.062985 0.050366
v 0.238514 -0.101828 0.098796
v 0.238514 0.062985 0.098796
v 0.214656 -0.101828 0.143429
v 0.214656 0.062985 0.143429
v 0.182550 -0.101828 0.182550
v 0.182550 0.062985 0.182550
v 0.143429 -0.101828 0.214657
v 0.143429 0.062985 0.214657
v 0.098795 -0.101828 0.238514
v 0.098795 0.062985 0.238514
v 0.050365 -0.101828 0.253205
v 0.050365 0.062985 0.253205
v -0.000000 -0.101828 0.258165
v -0.000000 0.062985 0.258165
v -0.050366 -0.101828 0.253205
v -0.050366 0.062985 0.253205
v -0.098796 -0.101828 0.238513
v -0.098796 0.062985 0.238514
v -0.143429 -0.101828 0.214656
v -0.143429 0.062985 0.214656
v -0.182551 -0.101828 0.182550
v -0.182551 0.062985 0.182550
v -0.214657 -0.101828 0.143429
v -0.214657 0.062985 0.143429
v -0.238514 -0.101828 0.098795
v -0.238514 0.062985 0.098795
v -0.253205 -0.101828 0.050365
v -0.253205 0.062985 0.050365
v -0.258165 -0.101828 -0.000000
v -0.258165 0.062985 -0.000000
v -0.253205 -0.101828 -0.050366
v -0.253205 0.062985 -0.050366
v -0.238513 -0.101828 -0.098796
v -0.238513 0.062985 -0.098796
v -0.214656 -0.101828 -0.143429
v -0.214656 0.062985 -0.143429
v -0.182550 -0.101828 -0.182551
v -0.182550 0.062985 -0.182551
v -0.143429 -0.101828 -0.214657
v -0.143429 0.062985 -0.214657
v -0.098795 -0.101828 -0.238514
v -0.098795 0.062985 -0.238514
v -0.050365 -0.101828 -0.253205
v -0.050365 0.062985 -0.253205
vn 0.7253 -0.6524 -0.2200
vn -0.2589 0.4523 -0.8535
vn -0.5658 0.4523 -0.6894
vn 0.5859 -0.6524 -0.4808
vn -0.6684 -0.6524 0.3573
vn 0.4204 0.4523 -0.7866
vn -0.4808 -0.6524 0.5859
vn 0.6684 -0.6524 0.3573
vn 0.0874 0.4523 -0.8876
vn 0.7543 -0.6524 0.0743
vn -0.5658 0.4523 0.6894
vn -0.7253 -0.6524 -0.2200
vn -0.2589 0.4523 0.8535
vn 0.8535 0.4523 -0.2589
vn -0.7543 -0.6524 0.0743
vn 0.2200 -0.6524 0.7253
vn 0.6894 0.4523 -0.5658
vn 0.4808 -0.6524 0.5859
vn -0.8876 0.4523 0.0874
vn -0.0743 -0.6524 0.7543
vn -0.3573 -0.6524 -0.6684
vn -0.7866 0.4523 0.4204
vn -0.5859 -0.6524 -0.4808
vn 0.7866 0.4523 0.4204
vn 0.8876 0.4523 0.0874
vn -0.6894 0.4523 -0.5658
vn 0.2200 -0.6524 -0.7253
vn -0.8535 0.4523 -0.2589
vn -0.0743 -0.6524 -0.7543
vn 0.2589 0.4523 0.8535
vn -0.0000 1.0000 -0.0000
vn -0.3573 -0.6524 0.6684
vn 0.5658 0.4523 0.6894
vn -0.0000 -1.0000 -0.0000
vn 0.0118 -0.9999 0.0012
vn 0.0012 0.9999 -0.0118
vn -0.0075 0.9999 0.0091
vn -0.0034 0.9999 0.0113
vn -0.0113 -0.9999 -0.0034
vn 0.0113 0.9999 -0.0034
vn -0.0118 -0.9999 0.0012
vn 0.0034 -0.9999 0.0113
vn 0.0091 0.9999 -0.0075
vn 0.0075 -0.9999 0.0091
vn -0.0012 -0.9999 0.0118
vn -0.0118 0.9999 0.0012
vn -0.0104 0.9999 0.0056
vn -0.0056 -0.9999 -0.0104
vn -0.0091 -0.9999 -0.0075
vn 0.0104 0.9999 0.0056
vn 0.0118 0.9999 0.0012
vn -0.0091 0.9999 -0.0075
vn -0.0113 0.9999 -0.0034
vn 0.0034 -0.9999 -0.0113
vn -0.0012 -0.9999 -0.0118
vn 0.0034 0.9999 0.0113
vn -0.0056 -0.9999 0.0104
vn 0.0075 0.9999 0.0091
vn -0.0012 0.9999 -0.0118
vn -0.0012 0.9999 0.0118
vn -0.0056 0.9999 -0.0104
vn 0.0104 -0.9999 -0.0056
vn 0.0075 -0.9999 -0.0091
vn -0.0113 -0.9999 0.0034
vn 0.0075 0.9999 -0.0091
vn -0.0091 -0.9999 0.0075
vn -0.2200 -0.6524 0.7253
vn 0.4204 0.4523 0.7866
vn 0.0874 0.4523 0.8876
vn 0.0743 -0.6524 -0.7543
vn -0.8876 0.4523 -0.0874
vn -0.7866 0.4523 -0.4204
vn 0.3573 -0.6524 -0.6684
vn 0.0743 -0.6524 0.7543
vn 0.8535 0.4523 0.2589
vn 0.6894 0.4523 0.5658
vn -0.4808 -0.6524 -0.5859
vn -0.6894 0.4523 0.5658
vn -0.8535 0.4523 0.2589
vn -0.2200 -0.6524 -0.7253
vn 0.5859 -0.6524 0.4808
vn 0.3573 -0.6524 0.6684
vn 0.7866 0.4523 -0.4204
vn -0.7543 -0.6524 -0.0743
vn 0.8876 0.4523 -0.0874
vn -0.4204 0.4523 0.7866
vn -0.6684 -0.6524 -0.3573
vn 0.7543 -0.6524 -0.0743
vn 0.7253 -0.6524 0.2200
vn 0.2589 0.4523 -0.8535
vn -0.5859 -0.6524 0.4808
vn 0.5658 0.4523 -0.6894
vn -0.7253 -0.6524 0.2200
vn 0.4808 -0.6524 -0.5859
vn 0.6684 -0.6524 -0.3573
vn -0.4204 0.4523 -0.7866
vn -0.0874 0.4523 -0.8876
vn -0.0874 0.4523 0.8876
vn 0.0980 -0.0000 -0.9952
vn 0.2903 -0.0000 -0.9569
vn 0.4714 -0.0000 -0.8819
vn 0.6344 -0.0000 -0.7730
vn 0.7730 -0.0000 -0.6344
vn 0.8819 -0.0000 -0.4714
vn 0.9569 -0.0000 -0.2903
vn 0.9952 -0.0000 -0.0980
vn 0.9952 -0.0000 0.0980
vn 0.9569 -0.0000 0.2903
vn 0.8819 -0.0000 0.4714
vn 0.7730 -0.0000 0.6344
vn 0.6344 -0.0000 0.7730
vn 0.4714 -0.0000 0.8819
vn 0.2903 -0.0000 0.9569
vn 0.0980 -0.0000 0.9952
vn -0.0980 -0.0000 0.9952
vn -0.2903 -0.0000 0.9569
vn -0.4714 -0.0000 0.8819
vn -0.6344 -0.0000 0.7730
vn -0.7730 -0.0000 0.6344
vn -0.8819 -0.0000 0.4714
vn -0.9569 -0.0000 0.2903
vn -0.9952 -0.0000 0.0980
vn -0.9952 -0.0000 -0.0980
vn -0.9569 -0.0000 -0.2903
vn -0.8819 -0.0000 -0.4714
vn -0.7730 -0.0000 -0.6344
vn -0.6344 -0.0000 -0.7730
vn -0.4714 -0.0000 -0.8819
vn -0.0980 -0.0000 -0.9952
vn -0.2903 -0.0000 -0.9569
vn 0.0104 -0.9999 0.0056
vn -0.0075 -0.9999 0.0091
vn 0.0056 0.9999 -0.0104
vn -0.0104 -0.9999 0.0056
vn -0.0075 0.9999 -0.0091
vn 0.0091 -0.9999 -0.0075
vn 0.0113 -0.9999 -0.0034
vn -0.0034 0.9999 -0.0113
vn -0.0034 -0.9999 0.0113
vn 0.0056 0.9999 0.0104
vn 0.0012 0.9999 0.0118
vn -0.0118 0.9999 -0.0012
vn 0.0012 -0.9999 -0.0118
vn 0.0056 -0.9999 -0.0104
vn -0.0104 0.9999 -0.0056
vn 0.0012 -0.9999 0.0118
vn 0.0113 0.9999 0.0034
vn 0.0091 0.9999 0.0075
vn -0.0091 0.9999 0.0075
vn -0.0075 -0.9999 -0.0091
vn -0.0034 -0.9999 -0.0113
vn -0.0113 0.9999 0.0034
vn 0.0091 -0.9999 0.0075
vn 0.0056 -0.9999 0.0104
vn 0.0104 0.9999 -0.0056
vn -0.0118 -0.9999 -0.0012
vn 0.0118 0.9999 -0.0012
vn -0.0104 -0.9999 -0.0056
vn -0.0056 0.9999 0.0104
vn 0.0118 -0.9999 -0.0012
vn 0.0034 0.9999 -0.0113
vn 0.0113 -0.9999 0.0034
s 0
f 47//1 45//1 109//1 111//1
f 30//2 32//2 96//2 94//2
f 26//3 28//3 92//3 90//3
f 43//4 41//4 105//4 107//4
f 13//5 11//5 75//5 77//5
f 38//6 40//6 104//6 102//6
f 9//7 7//7 71//7 73//7
f 55//8 53//8 117//8 119//8
f 34//9 36//9 100//9 98//9
f 51//10 49//10 113//10 115//10
f 8//11 10//11 74//11 72//11
f 21//12 19//12 83//12 85//12
f 4//13 6//13 70//13 68//13
f 46//14 48//14 112//14 110//14
f 17//15 15//15 79//15 81//15
f 63//16 61//16 125//16 127//16
f 42//17 44//17 108//17 106//17
f 59//18 57//18 121//18 123//18
f 16//19 18//19 82//19 80//19
f 3//20 1//20 65//20 67//20
f 29//21 27//21 91//21 93//21
f 12//22 14//22 78//22 76//22
f 25//23 23//23 87//23 89//23
f 54//24 56//24 120//24 118//24
f 50//25 52//25 116//25 114//25
f 24//26 26//26 90//26 88//26
f 37//27 35//27 99//27 101//27
f 20//28 22//28 86//28 84//28
f 33//29 31//29 95//29 97//29
f 62//30 64//30 128//30 126//30
f 4//31 2//31 64//31 62//31 60//31 58//31 56//31 54//31 52//31 50//31 48//31 46//31 44//31 42//31 40//31 38//31 36//31 34//31 32//31 30//31 28//31 26//31 24//31 22//31 20//31 18//31 16//31 14//31 12//31 10//31 8//31 6//31
f 7//32 5//32 69//32 71//32
f 58//33 60//33 124//33 122//33
f 1//34 3//34 5//34 7//34 9//34 11//34 13//34 15//34 17//34 19//34 21//34 23//34 25//34 27//34 29//34 31//34 33//34 35//34 37//34 39//34 41//34 43//34 45//34 47//34 49//34 51//34 53//34 55//34 57//34 59//34 61//34 63//34
f 115//35 113//35 177//35 179//35
f 98//36 100//36 164//36 162//36
f 72//37 74//37 138//37 136//37
f 68//38 70//38 134//38 132//38
f 85//39 83//39 147//39 149//39
f 110//40 112//40 176//40 174//40
f 81//41 79//41 143//41 145//41
f 127//42 125//42 189//42 191//42
f 106//43 108//43 172//43 170//43
f 123//44 121//44 185//44 187//44
f 67//45 65//45 129//45 131//45
f 80//46 82//46 146//46 144//46
f 76//47 78//47 142//47 140//47
f 93//48 91//48 155//48 157//48
f 89//49 87//49 151//49 153//49
f 118//50 120//50 184//50 182//50
f 114//51 116//51 180//51 178//51
f 88//52 90//52 154//52 152//52
f 84//53 86//53 150//53 148//53
f 101//54 99//54 163//54 165//54
f 97//55 95//55 159//55 161//55
f 126//56 128//56 192//56 190//56
f 71//57 69//57 133//57 135//57
f 122//58 124//58 188//58 186//58
f 96//59 98//59 162//59 160//59
f 66//60 68//60 132//60 130//60
f 92//61 94//61 158//61 156//61
f 109//62 107//62 171//62 173//62
f 105//63 103//63 167//63 169//63
f 79//64 77//64 141//64 143//64
f 104//65 106//65 170//65 168//65
f 75//66 73//66 137//66 139//66
f 5//67 3//67 67//67 69//67
f 60//68 62//68 126//68 124//68
f 64//69 2//69 66//69 128//69
f 35//70 33//70 97//70 99//70
f 18//71 20//71 84//71 82//71
f 22//72 24//72 88//72 86//72
f 39//73 37//73 101//73 103//73
f 1//74 63//74 127//74 65//74
f 52//75 54//75 118//75 116//75
f 56//76 58//76 122//76 120//76
f 27//77 25//77 89//77 91//77
f 10//78 12//78 76//78 74//78
f 14//79 16//79 80//79 78//79
f 31//80 29//80 93//80 95//80
f 57//81 55//81 119//81 121//81
f 61//82 59//82 123//82 125//82
f 44//83 46//83 110//83 108//83
f 19//84 17//84 81//84 83//84
f 48//85 50//85 114//85 112//85
f 6//86 8//86 72//86 70//86
f 23//87 21//87 85//87 87//87
f 49//88 47//88 111//88 113//88
f 53//89 51//89 115//89 117//89
f 36//90 38//90 102//90 100//90
f 11//91 9//91 73//91 75//91
f 40//92 42//92 106//92 104//92
f 15//93 13//93 77//93 79//93
f 41//94 39//94 103//94 105//94
f 45//95 43//95 107//95 109//95
f 28//96 30//96 94//96 92//96
f 32//97 34//97 98//97 96//97
f 2//98 4//98 68//98 66//98
f 129//99 130//99 132//99 131//99
f 131//100 132//100 134//100 133//100
f 133//101 134//101 136//101 135//101
f 135//102 136//102 138//102 137//102
f 137//103 138//103 140//103 139//103
f 139//104 140//104 142//104 141//104
f 141//105 142//105 144//105 143//105
f 143//106 144//106 146//106 145//106
f 145//107 146//107 148//107 147//107
f 147//108 148//108 150//108 149//108
f 149//109 150//109 152//109 151//109
f 151//110 152//110 154//110 153//110
f 153//111 154//111 156//111 155//111
f 155//112 156//112 158//112 157//112
f 157//113 158//113 160//113 159//113
f 159//114 160//114 162//114 161//114
f 161//115 162//115 164//115 163//115
f 163//116 164//116 166//116 165//116
f 165//117 166//117 168//117 167//117
f 167//118 168//118 170//118 169//118
f 169//119 170//119 172//119 171//119
f 171//120 172//120 174//120 173//120
f 173//121 174//121 176//121 175//121
f 175//122 176//122 178//122 177//122
f 177//123 178//123 180//123 179//123
f 179//124 180//124 182//124 181//124
f 181//125 182//125 184//125 183//125
f 183//126 184//126 186//126 185//126
f 185//127 186//127 188//127 187//127
f 187//128 188//128 190//128 189//128
f 191//129 192//129 130//129 129//129
f 189//130 190//130 192//130 191//130
f 119//131 117//131 181//131 183//131
f 73//132 71//132 135//132 137//132
f 102//133 104//133 168//133 166//133
f 77//134 75//134 139//134 141//134
f 90//135 92//135 156//135 154//135
f 107//136 105//136 169//136 171//136
f 111//137 109//137 173//137 175//137
f 94//138 96//138 160//138 158//138
f 69//139 67//139 131//139 133//139
f 124//140 126//140 190//140 188//140
f 128//141 66//141 130//141 192//141
f 82//142 84//142 148//142 146//142
f 99//143 97//143 161//143 163//143
f 103//144 101//144 165//144 167//144
f 86//145 88//145 152//145 150//145
f 65//146 127//146 191//146 129//146
f 116//147 118//147 182//147 180//147
f 120//148 122//148 186//148 184//148
f 74//149 76//149 140//149 138//149
f 91//150 89//150 153//150 155//150
f 95//151 93//151 157//151 159//151
f 78//152 80//152 144//152 142//152
f 121//153 119//153 183//153 185//153
f 125//154 123//154 187//154 189//154
f 108//155 110//155 174//155 172//155
f 83//156 81//156 145//156 147//156
f 112//157 114//157 178//157 176//157
f 87//158 85//158 149//158 151//158
f 70//159 72//159 136//159 134//159
f 113//160 111//160 175//160 177//160
f 100//161 102//161 166//161 164//161
f 117//162 115//162 179//162 181//162
